# xmcd
#
# Track frame offsets:
#	150
#	9876
#	23829
#	37015
#	50703
#	64231
#	78088
#	91329
#	105110
#	119415
#	132933
#	147373
#	162166
#	176657
#	189742
#	203147
#	217259
#	231692
#
# Disc length: 3274 seconds
#
# Revision: 0
# Processed by: cddbd v1.4PL0 Copyright (c) Steve Scherf et al.
# Submitted via: dBpowerAMP V4.0
#
DISCID=000cc812
DTITLE=Leadbelly - King of the Twelve String
DYEAR=1900
DGENRE=
TTITLE0=Midnight Special
TTITLE1=Irene Goodnight
TTITLE2=Rock Island Line
TTITLE3=Pick a Bale of Cotton
TTITLE4=Grey Goose
TTITLE5=New York City
TTITLE6=My Baby Quit Me
TTITLE7=Fort Worth and Dallas Blues
TTITLE8=TB Woman Blues
TTITLE9=Death Letter Blues pt. 1
TTITLE10=I´m on My Last Go Round
TTITLE11=The Bourgeois Blues
TTITLE12=Easy Rider
TTITLE13=Good Morning Blues
TTITLE14=See See Rider
TTITLE15=Whoa Back Buck
TTITLE16=Black Snake Woman
TTITLE17=Alabama Bound
EXTD=ilovewinona
EXTT0=
EXTT1=
EXTT2=
EXTT3=
EXTT4=
EXTT5=
EXTT6=
EXTT7=
EXTT8=
EXTT9=
EXTT10=
EXTT11=
EXTT12=
EXTT13=
EXTT14=
EXTT15=
EXTT16=
EXTT17=
PLAYORDER=
